<?xml version="1.0" encoding="utf-8"?>
<!-- Generator: Adobe Illustrator 22.1.0, SVG Export Plug-In . SVG Version: 6.00 Build 0)  -->
<svg version="1.1" id="Layer_1" xmlns="http://www.w3.org/2000/svg" xmlns:xlink="http://www.w3.org/1999/xlink" x="0px" y="0px"
	 viewBox="0 0 402.8 402.8" style="enable-background:new 0 0 402.8 402.8;" xml:space="preserve">
<style type="text/css">
	.st0{fill:#FFFFFF;}
	.st1{fill:#25CF57;}
</style>
<path class="st0" d="M213.6,275.9H110.3c-3.8,0-6.9-3.1-6.9-6.9c0-3.8,3.1-6.9,6.9-6.9h103.2c3.8,0,6.9,3.1,6.9,6.9
	C220.4,272.8,217.4,275.9,213.6,275.9z"/>
<path class="st0" d="M400,406.9c-1,0-1.9-0.2-2.8-0.6l-27.7-12.5l-28.7,12.6c-1.8,0.8-3.8,0.8-5.6,0l-28.4-12.6l-33.4,12.8
	c-1.8,0.7-3.8,0.6-5.5-0.3l-25.1-12.3l-26,12.4c-2.1,1-4.6,0.9-6.6-0.4c-2-1.3-3.2-3.5-3.2-5.8V137.9c0-3.8,3.1-6.9,6.9-6.9
	s6.9,3.1,6.9,6.9v251.1l19.2-9.1c1.9-0.9,4.1-0.9,6,0l25.4,12.5l33.2-12.7c1.7-0.7,3.6-0.6,5.3,0.1l28.3,12.6l28.7-12.6
	c1.8-0.8,3.8-0.8,5.6,0l20.8,9.4V140c-0.2-0.6-0.3-1.1-0.3-1.7c-3.3-69.8-60.6-124.5-130.4-124.5h-152c-3.8,0-6.9-3.1-6.9-6.9
	s3.1-6.9,6.9-6.9h152c76.5,0,139.4,59.4,144.1,135.6c0.3,0.7,0.5,1.5,0.5,2.4V400c0,2.3-1.2,4.5-3.2,5.8
	C402.6,406.5,401.3,406.9,400,406.9z"/>
<path class="st0" d="M110.3,275.9C49.5,275.9,0,214,0,137.9C0,61.9,49.5,0,110.3,0s110.3,61.9,110.3,137.9
	C220.7,214,171.2,275.9,110.3,275.9z M110.3,13.8c-53.2,0-96.6,55.7-96.6,124.1c0,68.4,43.3,124.1,96.6,124.1s96.6-55.7,96.6-124.1
	C206.9,69.5,163.6,13.8,110.3,13.8z"/>
<path class="st0" d="M110.3,182.8c-20.3,0-36.8-20.1-36.8-44.8c0-24.7,16.5-44.8,36.8-44.8c20.3,0,36.8,20.1,36.8,44.8
	C147.2,162.6,130.7,182.8,110.3,182.8z M110.3,106.9c-12.7,0-23,13.9-23,31c0,17.1,10.3,31,23,31s23-13.9,23-31
	C133.4,120.8,123,106.9,110.3,106.9z"/>
<path class="st1" d="M275.9,237.9c0,5.7-4.6,10.3-10.3,10.3c-5.7,0-10.3-4.6-10.3-10.3c0-5.7,4.6-10.3,10.3-10.3
	C271.2,227.6,275.9,232.2,275.9,237.9z"/>
<path class="st1" d="M358.6,237.9c0,5.7-4.6,10.3-10.3,10.3s-10.3-4.6-10.3-10.3c0-5.7,4.6-10.3,10.3-10.3S358.6,232.2,358.6,237.9z
	"/>
<path class="st1" d="M281,279.6c-7.1,0.1-12.2,7.3-9.5,13.9c5.7,14.1,19.5,24,35.6,23.8c16.1-0.2,29.7-10.3,35.1-24.5
	c2.5-6.7-2.7-13.7-9.8-13.7L281,279.6z"/>
</svg>
