<?xml version="1.0" encoding="utf-8"?>
<!-- Generator: Adobe Illustrator 22.1.0, SVG Export Plug-In . SVG Version: 6.00 Build 0)  -->
<svg version="1.1" id="Layer_1" xmlns="http://www.w3.org/2000/svg" xmlns:xlink="http://www.w3.org/1999/xlink" x="0px" y="0px"
	 viewBox="0 0 402.8 402.8" style="enable-background:new 0 0 402.8 402.8;" xml:space="preserve">
<style type="text/css">
	.st0{fill:#676767;}
	.st1{fill:#25CF57;}
</style>
<path class="st0" d="M211.4,273.1H109.2c-3.8,0-6.8-3.1-6.8-6.8s3.1-6.8,6.8-6.8h102.2c3.8,0,6.8,3.1,6.8,6.8
	S215.2,273.1,211.4,273.1z"/>
<path class="st0" d="M395.9,402.8c-1,0-1.9-0.2-2.8-0.6l-27.5-12.4l-28.4,12.4c-1.8,0.8-3.8,0.8-5.5,0l-28.1-12.5l-33,12.6
	c-1.8,0.7-3.7,0.6-5.5-0.2l-24.8-12.2l-25.7,12.2c-2.1,1-4.6,0.9-6.6-0.4c-2-1.2-3.2-3.4-3.2-5.8V136.5c0-3.8,3.1-6.8,6.8-6.8
	s6.8,3.1,6.8,6.8v248.6l19-9c1.9-0.9,4.1-0.9,5.9,0l25.1,12.3l32.9-12.6c1.7-0.6,3.6-0.6,5.2,0.1l28,12.4L363,376
	c1.8-0.8,3.8-0.8,5.5,0l20.6,9.3V138.6c-0.2-0.5-0.3-1.1-0.3-1.7c-3.3-69.1-60-123.2-129.1-123.2H109.2c-3.8,0-6.8-3.1-6.8-6.8
	s3.1-6.8,6.8-6.8h150.4c75.7,0,138,58.8,142.7,134.2c0.3,0.7,0.4,1.5,0.4,2.3v259.4c0,2.3-1.2,4.5-3.1,5.7
	C398.5,402.4,397.2,402.8,395.9,402.8z"/>
<path class="st0" d="M109.2,273.1C49,273.1,0,211.8,0,136.5C0,61.2,49,0,109.2,0s109.2,61.2,109.2,136.5
	C218.5,211.8,169.5,273.1,109.2,273.1z M109.2,13.7c-52.7,0-95.6,55.1-95.6,122.9c0,67.8,42.9,122.9,95.6,122.9
	s95.6-55.1,95.6-122.9C204.8,68.8,161.9,13.7,109.2,13.7z"/>
<path class="st0" d="M109.2,180.9c-20.1,0-36.5-19.9-36.5-44.4c0-24.5,16.4-44.4,36.5-44.4c20.1,0,36.5,19.9,36.5,44.4
	C145.7,161,129.3,180.9,109.2,180.9z M109.2,105.8c-12.6,0-22.8,13.8-22.8,30.7c0,16.9,10.2,30.7,22.8,30.7s22.8-13.8,22.8-30.7
	C132,119.6,121.8,105.8,109.2,105.8z"/>
<path class="st1" d="M273.1,235.5c0,5.7-4.6,10.2-10.2,10.2c-5.7,0-10.2-4.6-10.2-10.2c0-5.7,4.6-10.2,10.2-10.2
	C268.5,225.3,273.1,229.9,273.1,235.5z"/>
<path class="st1" d="M355,235.5c0,5.7-4.6,10.2-10.2,10.2s-10.2-4.6-10.2-10.2c0-5.7,4.6-10.2,10.2-10.2S355,229.9,355,235.5z"/>
<path class="st1" d="M278.2,276.7c-7,0.1-12,7.2-9.4,13.7c5.6,13.9,19.3,23.7,35.2,23.6c15.9-0.2,29.4-10.2,34.7-24.3
	c2.5-6.6-2.6-13.6-9.7-13.5L278.2,276.7z"/>
</svg>
